<svg width="243" height="28" viewBox="0 0 243 28" fill="none" xmlns="http://www.w3.org/2000/svg">
<path d="M11.5626 28V6.868H0.978591V2.08H26.8986V6.868H16.3506V28H11.5626ZM29.279 28V0.279999H33.995V7.12H45.515C46.427 7.12 47.255 7.348 47.999 7.804C48.743 8.26 49.343 8.86 49.799 9.604C50.255 10.348 50.483 11.176 50.483 12.088V28H45.767V12.268C45.767 12.148 45.719 12.052 45.623 11.98C45.551 11.884 45.455 11.836 45.335 11.836H34.427C34.307 11.836 34.199 11.884 34.103 11.98C34.031 12.052 33.995 12.148 33.995 12.268V28H29.279ZM53.0842 28V7.12H57.8002V28H53.0842ZM53.0842 5.032V0.279999H57.8002V5.032H53.0842ZM61.7404 28V7.12H77.9764C78.8884 7.12 79.7164 7.348 80.4604 7.804C81.2284 8.26 81.8284 8.86 82.2604 9.604C82.7164 10.348 82.9444 11.176 82.9444 12.088V28H78.2284V12.268C78.2284 12.148 78.1804 12.052 78.0844 11.98C78.0124 11.884 77.9164 11.836 77.7964 11.836H66.8884C66.7684 11.836 66.6604 11.884 66.5644 11.98C66.4924 12.052 66.4564 12.148 66.4564 12.268V28H61.7404ZM86.5668 28V0.279999H91.2828V15.184H94.9908L102.443 7.12H107.483V8.416L99.1668 17.56L107.447 26.704V28H102.443L94.9908 19.936H91.2828V28H86.5668ZM114.39 28C113.478 28 112.65 27.772 111.906 27.316C111.162 26.86 110.562 26.26 110.106 25.516C109.65 24.772 109.422 23.944 109.422 23.032V12.088C109.422 11.176 109.65 10.348 110.106 9.604C110.562 8.86 111.162 8.26 111.906 7.804C112.65 7.348 113.478 7.12 114.39 7.12H125.658C126.57 7.12 127.398 7.348 128.142 7.804C128.91 8.26 129.51 8.86 129.942 9.604C130.398 10.348 130.626 11.176 130.626 12.088V19.936H114.138V22.852C114.138 22.972 114.174 23.08 114.246 23.176C114.342 23.248 114.45 23.284 114.57 23.284H130.626V28H114.39ZM114.138 15.688H125.91V12.268C125.91 12.148 125.862 12.052 125.766 11.98C125.694 11.884 125.598 11.836 125.478 11.836H114.57C114.45 11.836 114.342 11.884 114.246 11.98C114.174 12.052 114.138 12.148 114.138 12.268V15.688ZM133.933 28V12.088C133.933 11.176 134.161 10.348 134.617 9.604C135.073 8.86 135.673 8.26 136.417 7.804C137.185 7.348 138.013 7.12 138.901 7.12H150.493V11.836H139.081C138.961 11.836 138.853 11.884 138.757 11.98C138.685 12.052 138.649 12.148 138.649 12.268V28H133.933ZM173.309 28L165.497 18.676H171.725L178.493 26.668V28H173.309ZM152.645 28V2.116H173.525C174.437 2.116 175.277 2.344 176.045 2.8C176.813 3.256 177.425 3.868 177.881 4.636C178.337 5.38 178.565 6.208 178.565 7.12V14.104C178.565 15.016 178.337 15.856 177.881 16.624C177.425 17.392 176.813 18.004 176.045 18.46C175.277 18.892 174.437 19.108 173.525 19.108L157.397 19.144V28H152.645ZM157.829 14.32H173.309C173.429 14.32 173.537 14.284 173.633 14.212C173.729 14.14 173.777 14.044 173.777 13.924V7.3C173.777 7.18 173.729 7.084 173.633 7.012C173.537 6.916 173.429 6.868 173.309 6.868H157.829C157.709 6.868 157.601 6.916 157.505 7.012C157.433 7.084 157.397 7.18 157.397 7.3V13.924C157.397 14.044 157.433 14.14 157.505 14.212C157.601 14.284 157.709 14.32 157.829 14.32ZM186.9 28C185.988 28 185.16 27.772 184.416 27.316C183.672 26.86 183.072 26.26 182.616 25.516C182.16 24.772 181.932 23.944 181.932 23.032V12.088C181.932 11.176 182.16 10.348 182.616 9.604C183.072 8.86 183.672 8.26 184.416 7.804C185.16 7.348 185.988 7.12 186.9 7.12H198.168C199.08 7.12 199.908 7.348 200.652 7.804C201.42 8.26 202.02 8.86 202.452 9.604C202.908 10.348 203.136 11.176 203.136 12.088V23.032C203.136 23.944 202.908 24.772 202.452 25.516C202.02 26.26 201.432 26.86 200.688 27.316C199.944 27.772 199.104 28 198.168 28H186.9ZM187.08 23.284H197.988C198.108 23.284 198.204 23.248 198.276 23.176C198.372 23.08 198.42 22.972 198.42 22.852V12.268C198.42 12.148 198.372 12.052 198.276 11.98C198.204 11.884 198.108 11.836 197.988 11.836H187.08C186.96 11.836 186.852 11.884 186.756 11.98C186.684 12.052 186.648 12.148 186.648 12.268V22.852C186.648 22.972 186.684 23.08 186.756 23.176C186.852 23.248 186.96 23.284 187.08 23.284ZM210.742 28C209.83 28 209.002 27.772 208.258 27.316C207.514 26.86 206.914 26.26 206.458 25.516C206.002 24.772 205.774 23.944 205.774 23.032V12.088C205.774 11.176 206.002 10.348 206.458 9.604C206.914 8.86 207.514 8.26 208.258 7.804C209.002 7.348 209.83 7.12 210.742 7.12H222.01C222.922 7.12 223.75 7.348 224.494 7.804C225.262 8.26 225.862 8.86 226.294 9.604C226.75 10.348 226.978 11.176 226.978 12.088V23.032C226.978 23.944 226.75 24.772 226.294 25.516C225.862 26.26 225.274 26.86 224.53 27.316C223.786 27.772 222.946 28 222.01 28H210.742ZM210.922 23.284H221.83C221.95 23.284 222.046 23.248 222.118 23.176C222.214 23.08 222.262 22.972 222.262 22.852V12.268C222.262 12.148 222.214 12.052 222.118 11.98C222.046 11.884 221.95 11.836 221.83 11.836H210.922C210.802 11.836 210.694 11.884 210.598 11.98C210.526 12.052 210.49 12.148 210.49 12.268V22.852C210.49 22.972 210.526 23.08 210.598 23.176C210.694 23.248 210.802 23.284 210.922 23.284ZM234.832 28C233.92 28 233.092 27.772 232.348 27.316C231.604 26.86 231.004 26.26 230.548 25.516C230.092 24.772 229.864 23.944 229.864 23.032V0.711999H234.58V7.12H242.716V11.836H234.58V22.852C234.58 22.972 234.616 23.08 234.688 23.176C234.784 23.248 234.892 23.284 235.012 23.284H242.716V28H234.832Z" fill="white"/>
</svg>
